<?xml version="1.0" encoding="UTF-8"?>
<svg version="1.1" xmlns="http://www.w3.org/2000/svg" width="3640" height="733">
<path d="M0 0 C0.83146042 -0.00570007 1.66292084 -0.01140015 2.51957703 -0.01727295 C4.27516431 -0.02666984 6.0307688 -0.03323564 7.78637695 -0.03710938 C10.40414522 -0.0467097 13.02109073 -0.07773961 15.63867188 -0.109375 C31.04777507 -0.20723394 46.0419485 1.50373677 60.82421875 6.015625 C62.13616211 6.40681519 62.13616211 6.40681519 63.47460938 6.8059082 C66.03616692 7.58312293 68.58779081 8.38553464 71.13671875 9.203125 C72.19753662 9.54102051 72.19753662 9.54102051 73.27978516 9.88574219 C96.99631938 17.62731886 118.12358408 31.11216446 136.13671875 48.203125 C137.3790378 49.25394032 138.62812689 50.2968559 139.88671875 51.328125 C146.10045044 56.63324498 151.00330857 63.21272143 156.07421875 69.578125 C156.57147461 70.19751953 157.06873047 70.81691406 157.58105469 71.45507812 C161.13671875 75.96870626 161.13671875 75.96870626 161.13671875 78.203125 C189.68304604 78.32947959 218.22891585 78.39306148 246.77553558 78.38190746 C260.0302997 78.3781921 273.28444338 78.39502006 286.5390625 78.46020508 C298.09182029 78.51696838 309.64388597 78.53519202 321.19676065 78.5071314 C327.31428805 78.49361872 333.43042437 78.4994078 339.54777527 78.55135155 C345.30712951 78.59964651 351.06416311 78.59636835 356.82353973 78.55371094 C358.9358824 78.54712331 361.04838077 78.55930223 363.16048431 78.59176064 C374.34779183 79.15991572 374.34779183 79.15991572 384.11903381 74.77318764 C386.15952501 71.993497 387.66197035 69.30989252 389.13671875 66.203125 C390.48537445 64.45265484 390.48537445 64.45265484 391.74609375 63.1171875 C396.10189925 58.47560065 396.10189925 58.47560065 400.1953125 53.60546875 C403.12548481 49.9796016 406.55867224 47.17582225 410.13671875 44.203125 C410.67264648 43.75485352 411.20857422 43.30658203 411.76074219 42.84472656 C420.14614061 35.86227867 428.60624495 29.57761593 438.13671875 24.203125 C439.08321289 23.66026855 439.08321289 23.66026855 440.04882812 23.10644531 C467.92208559 7.21950119 498.83438677 -0.47439521 530.82421875 -0.234375 C531.6917981 -0.23133362 532.55937744 -0.22829224 533.45324707 -0.22515869 C547.64596175 -0.15191311 561.3115282 0.76984742 575.13671875 4.203125 C575.98991699 4.41211426 576.84311523 4.62110352 577.72216797 4.83642578 C622.83272981 16.29212296 663.17442169 45.27155431 687.078125 85.36279297 C700.47519386 108.65317698 706.82942443 132.92235295 710.734375 159.3125 C711.07560478 161.56418953 711.41774892 163.81574064 711.76069641 166.06716919 C712.61442696 171.68816135 713.45834995 177.31056628 714.29831272 182.93363082 C715.32315148 189.79040775 716.36037133 196.64529809 717.39778996 203.50018096 C719.47762994 217.24586721 721.54629065 230.99322077 723.61083984 244.74121094 C726.19108325 261.92245869 728.77843539 279.10262691 731.36962891 296.28222656 C731.64670018 298.11924401 731.64670018 298.11924401 731.92936885 299.99337292 C732.69109245 305.0436131 733.45284389 310.09384908 734.21463102 315.14407969 C736.38519309 329.53378054 738.55501541 343.92359291 740.72436523 358.31347656 C740.82343358 358.97062169 740.92250192 359.62776681 741.02457233 360.30482543 C743.86835145 379.16858284 746.71012392 398.03264176 749.5493809 416.89708042 C750.11606421 420.66181395 750.68294934 424.42651705 751.24986553 428.19121552 C752.91647616 439.26054163 754.58141228 450.33010765 756.23796338 461.40094423 C757.13386769 467.38821609 758.0309681 473.37530825 758.92871094 479.36230469 C759.19131177 481.11389373 759.19131177 481.11389373 759.45921767 482.90086842 C761.85595461 498.87115646 764.32017268 514.82964561 766.83772826 530.78130984 C767.84207227 537.16162433 768.83372036 543.54392615 769.82504475 549.9262749 C770.59061596 554.84614701 771.36505774 559.76421663 772.16337204 564.67889023 C781.93216964 624.88376145 781.93216964 624.88376145 773.13671875 650.203125 C772.77449219 651.31429687 772.41226563 652.42546875 772.0390625 653.5703125 C761.64710577 682.94960713 739.69947869 707.58252842 711.7734375 721.4375 C693.76103797 729.92752062 676.75032199 733.43254959 656.92895508 733.55322266 C654.96561708 733.56963072 653.00233493 733.59671472 651.03930664 733.63525391 C616.65533664 734.30448578 586.16975989 720.55318836 561.44921875 696.953125 C552.38317942 687.50214403 545.50445569 677.57631108 539.91723633 665.72753906 C539.20575927 664.2270722 539.20575927 664.2270722 538.47990894 662.69629288 C533.24132631 651.50194497 528.67268954 640.05943069 524.1484375 628.5625 C523.23434711 626.25754726 522.31951913 623.95288692 521.40400696 621.64849854 C519.0170054 615.6348698 516.63950419 609.61753253 514.26428223 603.59924316 C511.88677724 597.57960289 509.50079039 591.56332818 507.11523438 585.546875 C504.34097999 578.54866121 501.56745893 571.55016231 498.79830933 564.54992676 C491.62447863 546.41554823 484.40193443 528.30107427 477.13671875 510.203125 C473.13192077 510.203125 471.34311074 511.77774172 467.94921875 513.890625 C448.57122627 525.42204782 425.01044773 527.798044 403.13671875 523.203125 C389.25331708 519.50858152 377.09645387 513.4864188 366.13671875 504.203125 C365.47285156 503.68363281 364.80898438 503.16414063 364.125 502.62890625 C357.59664183 497.33182977 351.50265821 490.19875824 347.88803387 482.56655216 C346.33879385 479.94762663 346.33879385 479.94762663 343.44731617 479.55436611 C342.35432052 479.54338925 341.26132486 479.5324124 340.13520813 479.52110291 C338.88052231 479.49688766 337.62583649 479.47267242 336.33312988 479.44772339 C334.93994187 479.44628126 333.54675317 479.44541569 332.15356445 479.44506836 C330.68826247 479.42683524 329.22298448 479.40657795 327.75773621 479.38444519 C323.77397311 479.33166361 319.79070124 479.31177268 315.8066256 479.30097651 C313.31645729 479.29298146 310.82641702 479.27836831 308.33629417 479.26147652 C299.645113 479.20320584 290.95430782 479.17304572 282.26293945 479.16674805 C274.16811241 479.160084 266.07550916 479.08981899 257.98134166 478.99019521 C251.0282652 478.90763274 244.07592238 478.87146697 237.12235898 478.87071139 C232.97075147 478.86938163 228.82135452 478.84915128 224.67025185 478.78153801 C220.76120011 478.71934407 216.85622429 478.7150705 212.94691658 478.75436592 C211.51662527 478.75902976 210.08609338 478.74337755 208.65629959 478.70536804 C204.22835335 478.59495549 200.32924818 478.71860931 196.13671875 480.203125 C192.60831235 483.809501 190.5020724 487.78836476 188.13671875 492.203125 C174.159322 510.26089308 152.06439348 521.91369647 129.5390625 524.88671875 C109.11491977 526.78609368 89.59305903 523.01000154 71.88208008 512.58496094 C70.80509354 511.95233337 69.72810699 511.31970581 68.6184845 510.66790771 C67.7995018 510.18452942 66.9805191 509.70115112 66.13671875 509.203125 C58.05523986 528.05709837 50.35110037 547.05410768 42.77734375 566.1171875 C42.31864395 567.27159081 41.85994415 568.42599411 41.38734436 569.61537933 C38.04976711 578.01802878 34.71774827 586.42287816 31.38671875 594.828125 C28.03679869 603.28061973 24.68483515 611.73229416 21.32823944 620.18214035 C20.00947093 623.50475025 18.69411292 626.8286953 17.37896729 630.15274048 C13.44962084 640.06322899 9.46328578 649.94678617 5.30371094 659.76318359 C4.94997028 660.6064451 4.59622963 661.44970661 4.23176956 662.3185215 C-7.61140149 689.97227274 -31.3872557 712.33514922 -58.86328125 724.203125 C-71.84076556 729.25045478 -84.76044611 733.50291952 -98.76953125 733.5390625 C-99.69310425 733.5457193 -100.61667725 733.5523761 -101.5682373 733.55923462 C-103.51454701 733.56930287 -105.46089084 733.57405346 -107.40722656 733.57373047 C-110.32808125 733.57807267 -113.24738356 733.61436924 -116.16796875 733.65234375 C-146.07890831 733.83252535 -171.92595235 723.06414439 -194.86328125 704.203125 C-195.56066406 703.64753906 -196.25804687 703.09195313 -196.9765625 702.51953125 C-201.46197568 698.84964774 -205.20447452 694.68688189 -208.86328125 690.203125 C-209.89775391 688.95982422 -209.89775391 688.95982422 -210.953125 687.69140625 C-232.9175043 660.01397223 -238.02104583 627.48669497 -234.16269881 593.11234468 C-232.89375077 582.73823075 -231.25346212 572.41514791 -229.61660647 562.09398723 C-228.83067766 557.10059011 -228.07462692 552.1026496 -227.31471252 547.10523987 C-225.99147088 538.42858369 -224.65093021 529.75475213 -223.29803467 521.08267212 C-221.14101657 507.25488281 -219.01659756 493.42218661 -216.89697266 479.58862305 C-216.15992432 474.78059443 -215.42264074 469.97260192 -214.6852417 465.16462708 C-214.50018318 463.95787392 -214.31512466 462.75112076 -214.12445831 461.50779933 C-212.78713259 452.79039966 -211.44465048 444.07380232 -210.10040283 435.35746765 C-204.53248761 399.2395388 -199.0721286 363.1064487 -193.66585911 326.96401855 C-192.61063398 319.91019428 -191.55364454 312.85663477 -190.49638247 305.80311556 C-189.97217859 302.3058632 -189.44806008 298.80859805 -188.92393017 295.31133461 C-188.71510137 293.91793354 -188.50627256 292.52453248 -188.29744375 291.13113141 C-188.14268773 290.0985199 -188.14268773 290.0985199 -187.98480533 289.04504755 C-187.77683959 287.65740087 -187.56887074 286.26975465 -187.36089875 284.8821089 C-186.6375371 280.05558317 -185.91430944 275.22903738 -185.19125366 270.40246582 C-185.0895954 269.72388278 -184.98793713 269.04529974 -184.88319831 268.34615357 C-183.35364709 258.13510826 -181.8288643 247.92335726 -180.30606079 237.71130371 C-178.56546238 226.03872499 -176.81668361 214.36739522 -175.05861193 202.69743341 C-174.1585078 196.72080287 -173.26203158 190.74368888 -172.37558174 184.76501656 C-163.26270919 123.34151288 -163.26270919 123.34151288 -153.86328125 103.203125 C-153.57227539 102.56648926 -153.28126953 101.92985352 -152.98144531 101.27392578 C-136.848619 66.2341099 -109.03597456 37.84934477 -74.86328125 20.203125 C-74.19603027 19.85652832 -73.5287793 19.50993164 -72.84130859 19.15283203 C-50.46503135 7.68734605 -25.27051439 0.13874511 0 0 Z M-92.86328125 73.203125 C-93.68570313 73.96109375 -94.508125 74.7190625 -95.35546875 75.5 C-113.746246 93.03139513 -126.24044553 117.32264173 -131.41210938 142.0546875 C-131.71629542 143.50319249 -132.03566788 144.94858069 -132.36914062 146.390625 C-139.36543923 177.27083953 -130.44825569 211.73530727 -114.11328125 238.390625 C-94.27018415 269.64246095 -64.27702293 290.23582565 -29.11328125 300.515625 C-28.28666992 300.75829102 -27.46005859 301.00095703 -26.60839844 301.25097656 C-14.38394317 304.65495052 -2.29909816 305.58319023 10.32421875 305.515625 C11.05071625 305.51346985 11.77721375 305.5113147 12.52572632 305.50909424 C23.64250824 305.45624519 34.32754729 304.95740942 45.13671875 302.203125 C46.27512207 301.92903809 46.27512207 301.92903809 47.43652344 301.64941406 C74.67992891 294.92959473 98.40272274 280.98615827 118.13671875 261.203125 C119.31427734 260.04296875 119.31427734 260.04296875 120.515625 258.859375 C145.07427097 233.2023996 156.57639053 197.979947 156.10644531 162.94628906 C156.0788916 161.88619629 156.0788916 161.88619629 156.05078125 160.8046875 C156.01726562 159.49242187 155.98375 158.18015625 155.94921875 156.828125 C155.86607422 155.11496094 155.86607422 155.11496094 155.78125 153.3671875 C156.31759161 148.59315776 158.64105666 145.51749472 162.19921875 142.390625 C166.86574015 139.53049898 171.83994938 139.52927564 177.13671875 140.203125 C181.98705413 141.94468837 184.43634441 143.85872828 186.8359375 148.46484375 C188.98936739 154.76921273 188.58916381 161.43416922 188.51171875 168.015625 C188.50523819 169.04965958 188.50523819 169.04965958 188.49862671 170.10458374 C188.41594893 181.35349038 187.67737795 192.22051377 185.13671875 203.203125 C184.97574707 203.9264502 184.81477539 204.64977539 184.64892578 205.39501953 C177.92674088 234.73112519 162.70324739 260.49975306 142.13671875 282.203125 C141.29496094 283.09773437 140.45320313 283.99234375 139.5859375 284.9140625 C117.11780301 308.13005096 87.0642532 323.60477426 55.94921875 331.515625 C54.52609375 331.87938232 54.52609375 331.87938232 53.07421875 332.25048828 C39.35066476 335.57108146 25.81695164 336.61694488 11.76171875 336.578125 C10.9794693 336.57724884 10.19721985 336.57637268 9.39126587 336.57546997 C-37.25966653 336.40430106 -80.98440777 319.34199591 -114.86328125 287.203125 C-115.35795898 286.74099609 -115.85263672 286.27886719 -116.36230469 285.80273438 C-128.10060538 274.77956707 -138.1043853 262.35970709 -145.86328125 248.203125 C-148.57985609 250.91969984 -148.48362884 252.92193854 -149.05238342 256.71328735 C-149.156418 257.39130291 -149.26045258 258.06931848 -149.36763972 258.76787996 C-149.7166266 261.05588198 -150.05366972 263.34548722 -150.39086914 265.63525391 C-150.63903525 267.27862597 -150.88793375 268.92188757 -151.13750839 270.56504631 C-151.81963359 275.07011528 -152.49143917 279.57667202 -153.1616118 284.08353233 C-153.8762381 288.87687226 -154.60046463 293.6687614 -155.32365417 298.46081543 C-156.71896959 307.71635292 -158.10581435 316.97313973 -159.48976439 326.23038268 C-161.23659213 337.91227772 -162.99368387 349.59262466 -164.75097656 361.27294922 C-165.38871258 365.51259305 -166.02636576 369.75224933 -166.66397095 373.99191284 C-166.82139932 375.03867113 -166.97882769 376.08542941 -167.14102662 377.16390765 C-168.25372422 384.56350047 -169.36468377 391.96335304 -170.47494507 399.36331177 C-174.01407148 422.94825725 -177.57538769 446.52957814 -181.18358493 470.10405779 C-181.59909287 472.81946094 -182.01413856 475.53493465 -182.42915434 478.25041306 C-185.59941487 498.99348605 -185.59941487 498.99348605 -187.19558716 509.36212158 C-188.02787765 514.76891858 -188.8555627 520.17639978 -189.67962074 525.5844574 C-189.97356907 527.50730663 -190.26935208 529.42987651 -190.56719017 531.35212708 C-190.96522766 533.92171496 -191.35693417 536.49219076 -191.74707031 539.06298828 C-191.86210938 539.79489191 -191.97714846 540.52679554 -192.09567356 541.28087807 C-192.75091564 545.6543982 -192.96602459 549.79779094 -192.86328125 554.203125 C-192.16459427 554.33951039 -191.46590729 554.47589579 -190.74604797 554.61641407 C-173.72582326 557.9392966 -156.70711024 561.26981331 -139.69003296 564.60877705 C-131.46058517 566.22330763 -123.23065081 567.83527432 -114.99951172 569.44116211 C-107.82315831 570.84126897 -100.64777531 572.24623093 -93.47350407 573.65696973 C-89.67667057 574.40339931 -85.87940325 575.14743072 -82.08096313 575.88564491 C-78.50116446 576.58144669 -74.9227045 577.28376434 -71.34514046 577.99096298 C-69.41527645 578.37072672 -67.48407852 578.74369231 -65.55284119 579.1164093 C-48.2436256 582.55681728 -48.2436256 582.55681728 -42.86328125 589.203125 C-40.48643078 593.09251668 -40.62702169 596.600233 -41.26953125 600.98828125 C-42.42567386 605.30099742 -44.84061023 607.97603791 -48.62109375 610.26953125 C-57.7129499 614.37374971 -68.69742698 610.58028016 -77.9921875 608.70288086 C-79.90613564 608.32227257 -79.90613564 608.32227257 -81.85874939 607.93397522 C-84.61310223 607.38619682 -87.36683814 606.83545098 -90.12011719 606.28230095 C-94.47236033 605.40792221 -98.82593059 604.54028208 -103.1796875 603.67347717 C-110.05902646 602.30302033 -116.93745521 600.92805495 -123.81550789 599.55115849 C-136.15539226 597.08098523 -148.49664252 594.61765376 -160.83849049 592.1573115 C-165.16867485 591.29389199 -169.49839591 590.42819477 -173.82775211 589.56063259 C-175.86684924 589.15226402 -177.90611224 588.74473608 -179.94544983 588.33757019 C-182.43462705 587.84052933 -184.92352409 587.34208257 -187.41209412 586.8420105 C-188.50264603 586.62468765 -189.59319794 586.40736481 -190.71679688 586.18345642 C-191.66800415 585.9930223 -192.61921143 585.80258818 -193.59924316 585.60638332 C-195.80817122 585.1446734 -195.80817122 585.1446734 -197.86328125 585.203125 C-203.94038393 610.37969323 -204.11809384 635.40035348 -191.01171875 658.4609375 C-186.61718156 665.30661097 -181.56083979 671.40733269 -175.86328125 677.203125 C-175.1775 677.90179687 -174.49171875 678.60046875 -173.78515625 679.3203125 C-154.91247665 697.28430753 -129.68597737 702.77152367 -104.5078125 702.4765625 C-80.09479573 701.77954068 -57.51425025 689.77088843 -40.86328125 672.203125 C-35.03597671 665.4831362 -30.62475533 658.23184626 -27.10546875 650.07958984 C-26.59677498 648.91726869 -26.59677498 648.91726869 -26.07780457 647.73146629 C-22.32875729 639.09298129 -18.8216311 630.3566972 -15.34066391 621.60752678 C-14.13444269 618.57578633 -12.9237308 615.54586838 -11.71218872 612.51625061 C-7.73843082 602.57356032 -3.78121669 592.62431169 0.17094994 582.67302227 C2.41031997 577.03519534 4.65203524 571.39830292 6.89453125 565.76171875 C7.55665304 564.09646495 7.55665304 564.09646495 8.23215103 562.39756966 C13.48295076 549.20181929 18.82076792 536.05272083 24.38732147 522.98691559 C26.14973392 518.83996316 27.88821743 514.6828994 29.62789536 510.52636719 C30.92923682 507.42642515 32.25453222 504.34241965 33.61621094 501.26812744 C40.28079711 487.88680505 40.28079711 487.88680505 39.69366455 473.62257385 C38.36825168 470.7024553 36.7613161 467.96502978 35.13671875 465.203125 C34.2190263 462.3123662 33.69244309 459.45090624 33.26171875 456.453125 C33.15005371 455.73833984 33.03838867 455.02355469 32.92333984 454.28710938 C29.84502682 433.34890648 35.3587984 413.66857228 47.13671875 396.203125 C49.93761232 392.65115382 52.94490304 389.40550963 56.13671875 386.203125 C56.8740625 385.44257813 57.61140625 384.68203125 58.37109375 383.8984375 C74.28494489 368.46520603 96.04020196 361.4877963 117.88671875 360.890625 C139.47189412 361.27436145 159.5046751 368.39598953 176.13671875 382.203125 C176.7296875 382.65042969 177.32265625 383.09773438 177.93359375 383.55859375 C190.87135946 393.67735088 200.01980029 411.27220844 203.13671875 427.203125 C203.79671875 433.803125 204.45671875 440.403125 205.13671875 447.203125 C248.69671875 447.203125 292.25671875 447.203125 337.13671875 447.203125 C337.79671875 440.603125 338.45671875 434.003125 339.13671875 427.203125 C345.44603284 404.90043333 356.51385803 385.99394149 377.01757812 374.11328125 C399.82851618 361.45805204 424.98313962 357.57937487 450.24121094 364.80517578 C471.03238488 371.33605042 490.013758 385.32085003 500.796875 404.52734375 C510.38613055 423.67789784 512.83921625 444.46484865 507.13671875 465.203125 C505.67048155 469.31038271 503.96126596 473.24556396 502.13671875 477.203125 C500.7810422 481.27015466 502.25023325 483.72154777 503.80419922 487.50415039 C504.10283969 488.25233095 504.40148016 489.00051151 504.70917034 489.77136421 C505.71511748 492.28487072 506.7345412 494.79268953 507.75390625 497.30078125 C508.47347938 499.09108274 509.19220528 500.88172497 509.91014099 502.67268372 C511.85992856 507.5296715 513.82138099 512.38186959 515.78525162 517.23317719 C517.83176594 522.2931969 519.86897188 527.35696085 521.90698242 532.42041016 C524.43024624 538.68760704 526.95484489 544.95425623 529.48435974 551.21893311 C534.84892829 564.5065781 540.18039842 577.8069442 545.48322296 591.11934471 C547.72743489 596.75054367 549.97713129 602.37955363 552.22696686 608.00850773 C554.00786296 612.46517575 555.78578602 616.92297966 557.55682373 621.38357544 C559.21899835 625.56924442 560.89030502 629.75115445 562.56834602 633.93048668 C563.175972 635.44837172 563.78038979 636.96754615 564.38113213 638.48816872 C574.62964603 664.41380005 590.14843063 684.11802975 616.06054688 695.36279297 C635.88711677 703.38761112 659.53099581 705.82102142 680.13671875 699.203125 C680.7615918 699.00976562 681.38646484 698.81640625 682.03027344 698.6171875 C696.86932676 693.93345318 709.09349523 686.22759942 720.13671875 675.203125 C721.29107422 674.06617188 721.29107422 674.06617188 722.46875 672.90625 C738.30843433 656.39196242 744.81972229 634.88342741 744.40234375 612.3671875 C743.98901538 598.38221895 743.98901538 598.38221895 740.13671875 585.203125 C723.32257563 588.26970008 706.54154083 591.47196971 689.78458595 594.83665085 C683.63843785 596.0689409 677.48991067 597.28928104 671.34179688 598.51171875 C663.59604631 600.05232407 655.85101721 601.59631918 648.10864258 603.15380859 C641.77080027 604.42820848 635.43065442 605.69050982 629.08878136 606.9446907 C626.69137292 607.42110316 624.29483877 607.90193833 621.89924049 608.38737106 C618.56756437 609.06190644 615.23316376 609.72092934 611.89770508 610.37646484 C610.92160278 610.57792114 609.94550049 610.77937744 608.93981934 610.98693848 C602.06013091 612.31501041 596.38490402 612.76475253 589.88671875 609.640625 C585.97400151 606.17253472 583.38621841 602.45270588 582.9765625 597.1171875 C583.35525986 592.29572356 584.95104401 588.90539565 588.13671875 585.203125 C593.01493571 582.2789765 597.84188767 581.21465116 603.34692383 580.15356445 C604.71248665 579.87957573 604.71248665 579.87957573 606.1056366 579.60005188 C609.12092657 578.99722822 612.1385003 578.40678238 615.15625 577.81640625 C617.29162481 577.39219 619.42685067 576.96722338 621.56193542 576.54154968 C627.21147516 575.41738403 632.86304155 574.30374611 638.51507568 573.19219971 C644.10444091 572.09101578 649.69176119 570.97956308 655.27929688 569.86914062 C681.88658312 564.5867564 708.50875598 559.38017311 735.13671875 554.203125 C734.57640022 541.86961949 732.71329633 529.79602283 730.84545898 517.60717773 C730.50314609 515.34637954 730.16131699 513.08550805 729.81993103 510.8245697 C728.8946182 504.70558352 727.96258216 498.5876385 727.02933002 492.46985888 C726.04414666 486.00370714 725.06527716 479.53659961 724.08570862 473.06959534 C722.43412529 462.17042688 720.77839162 451.27189446 719.11987305 440.3737793 C717.43288756 429.28853311 715.74798878 418.20297346 714.06616211 407.11694336 C713.91204327 406.10105268 713.91204327 406.10105268 713.75481092 405.06463896 C713.23814148 401.65885509 712.72152077 398.25306382 712.20493019 394.84726799 C711.18270981 388.10795368 710.16027374 381.3686721 709.13771057 374.62940979 C709.03790174 373.97160613 708.93809291 373.31380247 708.83525956 372.63606537 C707.39370692 363.13568914 705.95048136 353.63556818 704.50621033 344.13560486 C704.32466422 342.94090913 704.14311811 341.74621339 703.9560706 340.51531476 C703.06552724 334.65546239 702.17379984 328.79579546 701.27950191 322.93651485 C699.6448775 312.21504467 698.02600257 301.49174762 696.45418519 290.76086587 C695.72341936 285.77399266 694.98655222 280.78802817 694.249529 275.80207646 C693.90055469 273.42772064 693.55485525 271.05288101 693.21255386 268.67755401 C692.74260979 265.4169992 692.26195797 262.15819178 691.77894592 258.89955139 C691.57304634 257.43886842 691.57304634 257.43886842 691.36298716 255.94867671 C691.16416943 254.62836138 691.16416943 254.62836138 690.96133518 253.28137302 C690.84966025 252.51321217 690.73798532 251.74505132 690.62292629 250.95361286 C690.46247781 250.37595187 690.30202932 249.79829087 690.13671875 249.203125 C689.47671875 248.873125 688.81671875 248.543125 688.13671875 248.203125 C687.61464844 249.05132812 687.09257813 249.89953125 686.5546875 250.7734375 C677.03901218 266.02001988 666.07019563 280.72320059 652.13671875 292.203125 C651.64381348 292.62432617 651.1509082 293.04552734 650.64306641 293.47949219 C624.35594265 315.93096133 592.28440131 330.0314525 558.13671875 335.203125 C557.16931763 335.35563721 557.16931763 335.35563721 556.18237305 335.51123047 C536.04296688 338.22877872 512.92110143 337.76394585 493.13671875 333.203125 C491.86876465 332.92106201 491.86876465 332.92106201 490.57519531 332.63330078 C456.51355118 324.83448718 427.19411611 308.31567328 402.13671875 284.203125 C401.45738281 283.58695313 400.77804687 282.97078125 400.078125 282.3359375 C383.36634449 266.70121561 370.35641014 244.7934402 363.13671875 223.203125 C362.88196777 222.45772461 362.6272168 221.71232422 362.36474609 220.94433594 C356.41895056 203.28973147 353.90544902 186.52136763 353.82421875 167.890625 C353.8185791 166.64418213 353.81293945 165.39773926 353.80712891 164.11352539 C353.92190432 149.82593156 353.92190432 149.82593156 358.51171875 144.390625 C363.45120649 140.27438521 367.09762477 139.75538798 373.4453125 139.890625 C377.28679952 140.33666123 379.31739661 141.59009472 382.13671875 144.203125 C385.75118454 148.76758902 386.62611528 151.73134764 386.60546875 157.5234375 C386.61645201 158.95044138 386.62769222 160.37744329 386.63916016 161.80444336 C386.6379718 162.54338837 386.63678345 163.28233337 386.63555908 164.04367065 C386.65496895 202.27958801 399.33152778 236.30638379 426.52734375 263.62841797 C446.26477959 282.94068453 470.39824032 295.57648846 497.13671875 302.203125 C497.82926758 302.38101562 498.52181641 302.55890625 499.23535156 302.7421875 C519.49738093 307.72125274 544.99780778 307.51518944 565.13671875 302.203125 C565.81476562 302.03151855 566.4928125 301.85991211 567.19140625 301.68310547 C593.33149068 294.98650417 615.45266235 282.77913849 635.13671875 264.203125 C635.8740625 263.53023437 636.61140625 262.85734375 637.37109375 262.1640625 C660.48631382 240.27837541 672.88894586 209.40142818 676.13671875 178.203125 C676.29527344 177.07003906 676.45382812 175.93695313 676.6171875 174.76953125 C679.88347277 145.7610373 667.35400727 111.65255047 649.57421875 88.83203125 C646.88185531 85.51062481 644.04247597 82.3382841 641.13671875 79.203125 C640.6365625 78.65914062 640.13640625 78.11515625 639.62109375 77.5546875 C611.86333009 47.69406296 574.14570551 33.33738559 533.953125 31.01953125 C494.63856355 30.09255823 456.43600347 45.38508487 428.078125 72.33203125 C420.17587934 79.98920562 413.37373425 87.79977421 407.48388672 97.12792969 C402.90567302 104.35790975 399.36640118 107.16183913 391.13671875 109.203125 C387.75106037 109.59450781 384.40921358 109.60935734 381.00366211 109.58407593 C379.53157366 109.59109589 379.53157366 109.59109589 378.02974606 109.59825766 C374.76187816 109.61016364 371.49443304 109.6007675 368.2265625 109.59130859 C365.87533322 109.59537624 363.52410584 109.6007192 361.17288208 109.60723877 C354.80106529 109.62089511 348.42939451 109.61562056 342.05757523 109.60610151 C336.06033551 109.59926769 330.06310904 109.60448904 324.06586969 109.6088831 C311.46411103 109.61742661 298.86241797 109.60761921 286.26067007 109.591482 C275.46053107 109.57807975 264.66048882 109.58040813 253.86035156 109.59423828 C241.30201533 109.61031249 228.74373651 109.61660273 216.18539143 109.60740149 C209.54364981 109.60266689 202.90196204 109.60208867 196.26022339 109.61201096 C190.01554621 109.62068872 183.77105141 109.61464363 177.52639389 109.59732819 C175.23711322 109.59336771 172.94781714 109.59448984 170.65854263 109.60111618 C167.52874763 109.60933891 164.39953359 109.59900083 161.26977539 109.58407593 C160.36830245 109.59076809 159.46682951 109.59746026 158.53803921 109.60435522 C152.30628747 109.54689009 145.39656063 108.99434496 140.47244358 104.77809942 C136.73670829 100.72283259 133.88611945 95.88061533 130.80688477 91.32592773 C126.49305379 85.06841416 121.40015998 79.66384664 116.13671875 74.203125 C115.17185547 73.14351562 115.17185547 73.14351562 114.1875 72.0625 C88.70792005 44.86954266 50.09020865 33.10351031 13.953125 31.01953125 C-26.11077381 30.07489009 -64.00135283 45.91885826 -92.86328125 73.203125 Z M75.13671875 412.203125 C66.79821642 423.2224476 64.28026736 435.60890565 65.13671875 449.203125 C67.5806272 463.69338534 75.17894726 475.16675094 86.82421875 484.015625 C99.0406694 492.1025712 113.70496928 494.93133898 128.05078125 492.5546875 C141.88228211 489.64375505 153.16520678 483.35940931 162.13671875 472.203125 C170.49948502 459.2943652 173.49933589 445.94909088 170.44921875 430.78515625 C165.92262029 416.20573703 156.91220564 405.05347132 143.5078125 397.7109375 C118.9159454 386.71156241 93.19853998 392.5625668 75.13671875 412.203125 Z M383.1015625 409.828125 C373.4871521 421.44951968 369.82037931 434.3267653 370.90917969 449.20361328 C372.40637476 462.36029534 380.14686768 473.89626275 390.13671875 482.203125 C402.68580838 491.44597704 417.96167864 494.99749754 433.34375 492.73046875 C448.23339447 489.78080015 459.91375482 482.49737611 469.01171875 470.328125 C472.35512672 465.28147146 474.41835057 459.98645015 476.13671875 454.203125 C476.32878906 453.58050781 476.52085937 452.95789063 476.71875 452.31640625 C479.21893084 439.67530501 476.41962658 427.23134425 469.82421875 416.328125 C460.9469842 403.37824796 448.57244459 395.60017953 433.1171875 392.62109375 C414.34196741 389.98813366 396.10149619 395.91137862 383.1015625 409.828125 Z " fill="#000000" transform="translate(234.86328125,-0.203125)"/>
<path d="M0 0 C12.21 0 24.42 0 37 0 C37 11.88 37 23.76 37 36 C48.55 36 60.1 36 72 36 C72 47.55 72 59.1 72 71 C83.22 71 94.44 71 106 71 C106 47.57 106 24.14 106 0 C118.21 0 130.42 0 143 0 C143 58.74 143 117.48 143 178 C130.79 178 118.58 178 106 178 C106 154.57 106 131.14 106 107 C94.45 107 82.9 107 71 107 C71 95.45 71 83.9 71 72 C59.78 72 48.56 72 37 72 C37 106.98 37 141.96 37 178 C24.79 178 12.58 178 0 178 C0 119.26 0 60.52 0 0 Z " fill="#000000" transform="translate(3462,292)"/>
<path d="M0 0 C23.43 0 46.86 0 71 0 C71 11.88 71 23.76 71 36 C82.88 36 94.76 36 107 36 C107 82.86 107 129.72 107 178 C94.79 178 82.58 178 70 178 C70 166.45 70 154.9 70 143 C47.23 143 24.46 143 1 143 C1 154.55 1 166.1 1 178 C-11.21 178 -23.42 178 -36 178 C-36 131.14 -36 84.28 -36 36 C-24.12 36 -12.24 36 0 36 C0 24.12 0 12.24 0 0 Z M1 37 C1 59.77 1 82.54 1 106 C23.77 106 46.54 106 70 106 C70 83.23 70 60.46 70 37 C47.23 37 24.46 37 1 37 Z " fill="#000000" transform="translate(1581,292)"/>
<path d="M0 0 C12.21 0 24.42 0 37 0 C37 23.43 37 46.86 37 71 C59.77 71 82.54 71 106 71 C106 47.57 106 24.14 106 0 C118.21 0 130.42 0 143 0 C143 58.74 143 117.48 143 178 C130.79 178 118.58 178 106 178 C106 154.57 106 131.14 106 107 C83.23 107 60.46 107 37 107 C37 130.43 37 153.86 37 178 C24.79 178 12.58 178 0 178 C0 119.26 0 60.52 0 0 Z " fill="#000000" transform="translate(2184,292)"/>
<path d="M0 0 C35.31 0 70.62 0 107 0 C107 11.88 107 23.76 107 36 C118.88 36 130.76 36 143 36 C143 71.31 143 106.62 143 143 C131.12 143 119.24 143 107 143 C107 154.55 107 166.1 107 178 C71.69 178 36.38 178 0 178 C0 119.26 0 60.52 0 0 Z M37 37 C37 71.65 37 106.3 37 142 C59.77 142 82.54 142 106 142 C106 107.35 106 72.7 106 37 C83.23 37 60.46 37 37 37 Z " fill="#000000" transform="translate(1119,292)"/>
<path d="M0 0 C16.62397945 13.910946 30.65578776 32.88466864 32.875 55.1875 C34.71492629 83.27006055 28.35013738 105.30656622 9.76171875 126.609375 C-6.98196919 144.36319403 -31.08822941 154.38139383 -55.28515625 155.30859375 C-79.9474671 155.77288975 -102.38281276 148.30445179 -121.125 132.1875 C-121.74890625 131.69636719 -122.3728125 131.20523438 -123.015625 130.69921875 C-137.78714995 118.88865263 -148.00630151 98.87292092 -150.84375 80.34765625 C-153.05274882 55.52710006 -147.60509344 32.7667146 -131.6953125 13.19921875 C-118.29321493 -2.3865755 -101.14353217 -12.94243456 -81.125 -17.8125 C-80.21105469 -18.03679687 -79.29710937 -18.26109375 -78.35546875 -18.4921875 C-50.88997364 -24.10052636 -22.065996 -17.02919257 0 0 Z M-101.32421875 28.08984375 C-113.55911163 42.34176886 -118.02682153 56.30657481 -117.30859375 74.85839844 C-116.90142687 80.02378678 -115.28691027 84.5223252 -113.125 89.1875 C-112.774375 89.97125 -112.42375 90.755 -112.0625 91.5625 C-105.41719465 104.85311071 -93.08745409 115.36250004 -79.125 120.1875 C-59.54132385 125.4084158 -42.41535938 123.38261512 -24.86523438 113.25927734 C-12.57989904 105.69297233 -5.21155677 93.16728268 -1.375 79.51953125 C1.78074984 65.38440177 -0.85400376 51.73626082 -8.11328125 39.2265625 C-17.16612914 25.55060976 -29.91934505 16.73005757 -45.875 12.875 C-65.04836413 9.6691642 -87.00232268 14.14901809 -101.32421875 28.08984375 Z " fill="#000000" transform="translate(825.125,100.8125)"/>
<path d="M0 0 C12.21 0 24.42 0 37 0 C37 23.43 37 46.86 37 71 C48.22 71 59.44 71 71 71 C71 59.45 71 47.9 71 36 C82.55 36 94.1 36 106 36 C106 24.12 106 12.24 106 0 C118.21 0 130.42 0 143 0 C143 12.21 143 24.42 143 37 C131.12 37 119.24 37 107 37 C107 48.55 107 60.1 107 72 C95.45 72 83.9 72 72 72 C72 83.22 72 94.44 72 106 C83.55 106 95.1 106 107 106 C107 117.88 107 129.76 107 142 C118.88 142 130.76 142 143 142 C143 153.88 143 165.76 143 178 C130.79 178 118.58 178 106 178 C106 166.45 106 154.9 106 143 C94.45 143 82.9 143 71 143 C71 131.12 71 119.24 71 107 C59.78 107 48.56 107 37 107 C37 130.43 37 153.86 37 178 C24.79 178 12.58 178 0 178 C0 119.26 0 60.52 0 0 Z " fill="#000000" transform="translate(2823,292)"/>
<path d="M0 0 C12.21 0 24.42 0 37 0 C37 46.86 37 93.72 37 142 C59.77 142 82.54 142 106 142 C106 95.14 106 48.28 106 0 C118.21 0 130.42 0 143 0 C143 47.19 143 94.38 143 143 C131.12 143 119.24 143 107 143 C107 154.55 107 166.1 107 178 C83.57 178 60.14 178 36 178 C36 166.45 36 154.9 36 143 C24.12 143 12.24 143 0 143 C0 95.81 0 48.62 0 0 Z " fill="#000000" transform="translate(3249,292)"/>
<path d="M0 0 C12.21 0 24.42 0 37 0 C37 46.86 37 93.72 37 142 C59.77 142 82.54 142 106 142 C106 95.14 106 48.28 106 0 C118.21 0 130.42 0 143 0 C143 47.19 143 94.38 143 143 C131.12 143 119.24 143 107 143 C107 154.55 107 166.1 107 178 C83.57 178 60.14 178 36 178 C36 166.45 36 154.9 36 143 C24.12 143 12.24 143 0 143 C0 95.81 0 48.62 0 0 Z " fill="#000000" transform="translate(1332,292)"/>
<path d="M0 0 C23.43 0 46.86 0 71 0 C71 11.88 71 23.76 71 36 C82.88 36 94.76 36 107 36 C107 71.31 107 106.62 107 143 C95.12 143 83.24 143 71 143 C71 154.55 71 166.1 71 178 C47.57 178 24.14 178 0 178 C0 166.45 0 154.9 0 143 C-11.88 143 -23.76 143 -36 143 C-36 107.69 -36 72.38 -36 36 C-24.12 36 -12.24 36 0 36 C0 24.12 0 12.24 0 0 Z M1 37 C1 71.65 1 106.3 1 142 C23.77 142 46.54 142 70 142 C70 107.35 70 72.7 70 37 C47.23 37 24.46 37 1 37 Z " fill="#000000" transform="translate(2433,292)"/>
<path d="M0 0 C35.31 0 70.62 0 107 0 C107 12.21 107 24.42 107 37 C72.02 37 37.04 37 1 37 C1 48.22 1 59.44 1 71 C24.1 71 47.2 71 71 71 C71 82.55 71 94.1 71 106 C82.88 106 94.76 106 107 106 C107 118.21 107 130.42 107 143 C95.12 143 83.24 143 71 143 C71 154.55 71 166.1 71 178 C35.69 178 0.38 178 -36 178 C-36 166.12 -36 154.24 -36 142 C-1.02 142 33.96 142 70 142 C70 130.45 70 118.9 70 107 C46.9 107 23.8 107 0 107 C0 95.45 0 83.9 0 72 C-11.88 72 -23.76 72 -36 72 C-36 60.12 -36 48.24 -36 36 C-24.12 36 -12.24 36 0 36 C0 24.12 0 12.24 0 0 Z " fill="#000000" transform="translate(2007,292)"/>
<path d="M0 0 C35.31 0 70.62 0 107 0 C107 23.76 107 47.52 107 72 C94.79 72 82.58 72 70 72 C70 60.45 70 48.9 70 37 C47.23 37 24.46 37 1 37 C1 71.65 1 106.3 1 142 C35.98 142 70.96 142 107 142 C107 153.88 107 165.76 107 178 C71.69 178 36.38 178 0 178 C0 166.45 0 154.9 0 143 C-11.88 143 -23.76 143 -36 143 C-36 107.69 -36 72.38 -36 36 C-24.12 36 -12.24 36 0 36 C0 24.12 0 12.24 0 0 Z " fill="#000000" transform="translate(2646,292)"/>
<path d="M0 0 C35.31 0 70.62 0 107 0 C107 12.21 107 24.42 107 37 C72.02 37 37.04 37 1 37 C1 48.22 1 59.44 1 71 C35.98 71 70.96 71 107 71 C107 82.88 107 94.76 107 107 C72.02 107 37.04 107 1 107 C1 130.43 1 153.86 1 178 C-11.21 178 -23.42 178 -36 178 C-36 131.14 -36 84.28 -36 36 C-24.12 36 -12.24 36 0 36 C0 24.12 0 12.24 0 0 Z " fill="#000000" transform="translate(3072,292)"/>
<path d="M0 0 C4.75982924 2.62772498 7.04616381 6.26349144 8.75 11.375 C8.83852819 13.26156815 8.86762222 15.15115524 8.86352539 17.03979492 C8.86341209 18.78126045 8.86341209 18.78126045 8.86329651 20.5579071 C8.85813522 21.81110245 8.85297394 23.06429779 8.84765625 24.35546875 C8.8462413 25.63859451 8.84482635 26.92172028 8.84336853 28.24372864 C8.83955405 31.65170241 8.82973291 35.05963343 8.81866455 38.46759033 C8.80842743 41.94648663 8.80386598 45.42538985 8.79882812 48.90429688 C8.78810967 55.72788212 8.77104609 62.55143901 8.75 69.375 C9.48391968 69.36833817 10.21783936 69.36167633 10.97399902 69.35481262 C17.9174769 69.29450255 24.86091522 69.24892491 31.80458832 69.21956348 C35.37374621 69.20396053 38.94268622 69.18282182 42.51171875 69.14868164 C45.96118793 69.11589466 49.41044857 69.09810668 52.86006165 69.09036827 C54.80533736 69.08219269 56.75053012 69.05880455 58.69567871 69.03511047 C66.85120798 69.03357131 73.17915069 69.3475408 79.625 74.8125 C83.2859115 79.22712857 84.20597386 82.46246137 84.06640625 88.12890625 C83.39678319 92.88240325 80.59718903 95.62866681 77.125 98.6875 C73.33487538 101.38048328 71.28985439 101.49762717 66.64794922 101.48852539 C65.36677216 101.48844986 64.08559509 101.48837433 62.76559448 101.48829651 C61.36195843 101.48318948 59.95832277 101.47797348 58.5546875 101.47265625 C57.12265065 101.47079146 55.69061316 101.46936784 54.25857544 101.46836853 C50.48726646 101.46454819 46.71599593 101.45472202 42.94470215 101.44366455 C39.09725464 101.43344005 35.24980093 101.42886868 31.40234375 101.42382812 C23.85154497 101.41309933 16.30077787 101.39602869 8.75 101.375 C8.75999275 102.46374924 8.75999275 102.46374924 8.77018738 103.57449341 C8.8304142 110.43029698 8.87603312 117.28606077 8.90543652 124.14206123 C8.92106162 127.66643732 8.94224144 131.19059394 8.97631836 134.71484375 C9.01528952 138.77085421 9.02973523 142.8266358 9.04296875 146.8828125 C9.05845261 148.14239777 9.07393646 149.40198303 9.08988953 150.69973755 C9.09011612 151.88050873 9.09034271 153.06127991 9.09057617 154.27783203 C9.10056892 155.83003952 9.10056892 155.83003952 9.11076355 157.41360474 C8.49224086 162.49086427 6.53199886 165.62700109 2.875 169.125 C-2.63346496 173.09109477 -6.13629089 173.77972719 -12.81640625 172.90625 C-17.74651075 171.83001531 -20.37389255 169.51551915 -23.38964844 165.58959961 C-26.4489737 160.01326434 -25.74060635 153.74732658 -25.640625 147.56640625 C-25.63315338 146.23120475 -25.6274648 144.8959922 -25.62347412 143.56077576 C-25.60828979 140.06707843 -25.56907259 136.57405911 -25.5246582 133.08062744 C-25.48354823 129.50762094 -25.46542978 125.93450358 -25.4453125 122.36132812 C-25.40256942 115.36560903 -25.33440743 108.37033718 -25.25 101.375 C-26.03403198 101.38610306 -26.81806396 101.39720612 -27.62585449 101.40864563 C-35.04024384 101.5091257 -42.45429978 101.58510474 -49.86919403 101.63406086 C-53.68067132 101.66007672 -57.49158271 101.69532511 -61.30273438 101.75219727 C-64.98565678 101.80680754 -68.66803735 101.8364807 -72.35133362 101.84938622 C-73.75151593 101.85857457 -75.15167094 101.87651724 -76.55162048 101.90365028 C-84.57423871 102.05285613 -91.14991153 102.10444241 -97.25 96.375 C-100.86190831 91.5214982 -101.09750845 86.22185604 -100.25 80.375 C-97.89806505 75.49021204 -94.94223213 73.01438057 -90.25 70.375 C-86.88285544 69.26131816 -83.72747386 69.25417877 -80.19628906 69.26147461 C-78.97532532 69.26155014 -77.75436157 69.26162567 -76.49639893 69.26170349 C-74.52591583 69.26944542 -74.52591583 69.26944542 -72.515625 69.27734375 C-71.1537074 69.27920979 -69.79178912 69.28063282 -68.42987061 69.28163147 C-64.85258111 69.28544197 -61.27533248 69.29525968 -57.69805908 69.30633545 C-54.04480543 69.31658116 -50.39154514 69.32113585 -46.73828125 69.32617188 C-39.57550224 69.33688331 -32.41275686 69.35394206 -25.25 69.375 C-25.25888245 68.65138779 -25.26776489 67.92777557 -25.2769165 67.18223572 C-25.35727776 60.34150094 -25.41807344 53.5008373 -25.45724869 46.65975094 C-25.47806691 43.14315994 -25.50627697 39.62696107 -25.55175781 36.1105957 C-25.60379134 32.06197482 -25.6229927 28.01376171 -25.640625 23.96484375 C-25.66127014 22.71041977 -25.68191528 21.45599579 -25.70318604 20.16355896 C-25.70492941 13.35048728 -25.48096246 8.84007263 -21.25 3.375 C-14.62585634 -1.762091 -7.79683294 -3.5122182 0 0 Z " fill="#000000" transform="translate(254.25,82.625)"/>
<path d="M0 0 C12.21 0 24.42 0 37 0 C37 46.86 37 93.72 37 142 C71.98 142 106.96 142 143 142 C143 153.88 143 165.76 143 178 C107.69 178 72.38 178 36 178 C36 166.45 36 154.9 36 143 C24.12 143 12.24 143 0 143 C0 95.81 0 48.62 0 0 Z " fill="#000000" transform="translate(1758,292)"/>
<path d="M0 0 C1.20167313 -0.01283524 2.40334625 -0.02567047 3.64143372 -0.03889465 C4.94142807 -0.04628159 6.24142242 -0.05366852 7.58081055 -0.0612793 C8.24355673 -0.06535482 8.90630291 -0.06943035 9.58913231 -0.07362938 C13.09734152 -0.09446897 16.60551187 -0.10877953 20.11376953 -0.11816406 C23.72860463 -0.12922202 27.34282305 -0.16361973 30.95744038 -0.20333576 C33.74479785 -0.2295388 36.53200919 -0.23785911 39.31947899 -0.24144554 C41.29700373 -0.24865603 43.2744284 -0.27507844 45.25178528 -0.30183411 C56.40515553 -0.27489237 56.40515553 -0.27489237 61.1550293 4.17700195 C65.50413846 9.11382857 66.568359 12.07533663 66.50268555 18.56762695 C65.95077962 22.71002203 64.09519786 25.29306612 61.1550293 28.17700195 C56.44826229 31.62097781 52.40927938 32.29752863 46.67138672 32.33813477 C45.57312057 32.34774231 44.47485443 32.35734985 43.3433075 32.36724854 C41.56981682 32.37362335 41.56981682 32.37362335 39.76049805 32.38012695 C38.53978104 32.38582703 37.31906403 32.3915271 36.06135559 32.3973999 C33.47824977 32.40684547 30.89513193 32.41338212 28.31201172 32.41723633 C24.36819347 32.42693881 20.42489706 32.45796618 16.48120117 32.48950195 C13.97013655 32.49603255 11.45906821 32.5012828 8.94799805 32.50512695 C7.77174362 32.51747375 6.5954892 32.52982056 5.3835907 32.5425415 C-2.40670784 32.52143563 -7.60423132 31.98564276 -13.6574707 26.73950195 C-17.40090715 22.35433355 -18.30147125 19.11092433 -18.16137695 13.4230957 C-17.49525435 8.69444761 -14.70019218 5.94878719 -11.2824707 2.86450195 C-7.46644299 0.22263662 -4.53056163 0.04211901 0 0 Z " fill="#000000" transform="translate(481.844970703125,385.822998046875)"/>
<path d="M0 0 C0.33 0 0.66 0 1 0 C1 41.91 1 83.82 1 127 C0.67 127 0.34 127 0 127 C-0.48466519 123.58409069 -0.96166632 120.1671498 -1.4375 116.75 C-1.57220703 115.80125 -1.70691406 114.8525 -1.84570312 113.875 C-1.97783203 112.92109375 -2.10996094 111.9671875 -2.24609375 110.984375 C-2.36654053 110.12553711 -2.4869873 109.26669922 -2.61108398 108.38183594 C-3.72320083 98.71137606 -4.16839284 89.13027338 -4.203125 79.3984375 C-4.20882507 78.12312164 -4.21452515 76.84780579 -4.22039795 75.53384399 C-4.23082096 72.84287124 -4.23671763 70.15192751 -4.24023438 67.4609375 C-4.24458077 64.76190387 -4.25833922 62.06319681 -4.28125 59.36425781 C-4.43841774 39.340106 -3.48340109 19.74911295 0 0 Z " fill="#2A6DB2" transform="translate(4,304)"/>
</svg>
